<svg width="17" height="51" viewBox="0 0 17 51" fill="none" xmlns="http://www.w3.org/2000/svg">
<path d="M1 14.0693V36.0293C1.00003 39.1276 3.04659 41.8792 6.01953 42.9199C8.501 43.7885 11.3749 44.8834 13.6406 46.0029C14.5164 46.4357 15.3279 46.8854 16 47.3408V2.7627C15.3362 3.22108 14.5389 3.66924 13.6797 4.09668C11.4288 5.21645 8.57134 6.29071 6.09473 7.13965C3.08411 8.17163 1 10.9432 1 14.0693Z" fill="white" stroke="#D5D5D5" stroke-width="2"/>
<path d="M10.1431 7.20574C7.10678 8.62962 5 11.5976 5 14.9512V35.1298C5 38.4438 7.05677 41.3882 10.0491 42.8125C13.3299 44.3741 17 46.4619 17 47.9869C17 48.9072 17 1.09374 17 2.01309C17 3.6256 13.3996 5.67861 10.1431 7.20574Z" fill="white"/>
<path d="M12.4243 24.5757C12.6586 24.8101 12.6586 25.1899 12.4243 25.4243L8.60589 29.2426C8.37157 29.477 7.99167 29.477 7.75736 29.2426C7.52304 29.0083 7.52304 28.6284 7.75736 28.3941L11.1515 25L7.75736 21.6059C7.52304 21.3716 7.52304 20.9917 7.75736 20.7574C7.99167 20.523 8.37157 20.523 8.60589 20.7574L12.4243 24.5757ZM11 25V24.4H12V25V25.6H11V25Z" fill="#E80645"/>
</svg>
