<svg width="17" height="51" viewBox="0 0 17 51" fill="none" xmlns="http://www.w3.org/2000/svg">
<path d="M16 14.0693V36.0293C16 39.1276 13.9534 41.8792 10.9805 42.9199C8.499 43.7885 5.62507 44.8834 3.35938 46.0029C2.48355 46.4357 1.67207 46.8854 1 47.3408V2.7627C1.66384 3.22108 2.46111 3.66924 3.32031 4.09668C5.57124 5.21645 8.42866 6.29071 10.9053 7.13965C13.9159 8.17163 16 10.9432 16 14.0693Z" fill="white" stroke="#D5D5D5" stroke-width="2"/>
<path d="M6.85688 7.20574C9.89322 8.62962 12 11.5976 12 14.9512V35.1298C12 38.4438 9.94323 41.3882 6.95091 42.8125C3.67007 44.3741 0 46.4619 0 47.9869C0 48.9072 0 1.09374 0 2.01309C0 3.6256 3.60036 5.67861 6.85688 7.20574Z" fill="white"/>
<path d="M4.57574 24.5757C4.34142 24.8101 4.34142 25.1899 4.57574 25.4243L8.39411 29.2426C8.62843 29.477 9.00833 29.477 9.24264 29.2426C9.47696 29.0083 9.47696 28.6284 9.24264 28.3941L5.84853 25L9.24264 21.6059C9.47696 21.3716 9.47696 20.9917 9.24264 20.7574C9.00833 20.523 8.62843 20.523 8.39411 20.7574L4.57574 24.5757ZM6 25V24.4H5V25V25.6H6V25Z" fill="#E80645"/>
</svg>
