<svg width="150" height="35" viewBox="0 0 150 35" fill="none" xmlns="http://www.w3.org/2000/svg">
<path d="M118.27 6.40649H139.145V28.2815H118.27V6.40649Z" fill="white"/>
<path d="M21.3234 19.0368L7.73795 19.0982L6.20113 24.5078H16.0368V29.733H21.2619V19.0368H21.3234ZM58.5144 5.51279H53.3507V10.9377L58.5144 10.6765V5.51279ZM53.1663 20.9424C53.1663 21.926 52.7974 22.7251 52.1212 23.4628C51.445 24.139 50.5844 24.5078 49.6008 24.5078H34.7859V24.5693H33.9253C32.9417 24.5693 31.4664 24.5693 30.3599 24.6308C30.3599 24.6308 30.3599 22.0489 30.3599 21.0654V5.88162H25.1962V21.0654C25.1962 23.4628 25.1962 29.856 25.1962 29.856C26.9174 29.856 31.5279 29.856 33.9253 29.856H35.0933V29.7945H49.5394C51.9368 29.7945 54.0269 28.9339 55.7481 27.2126C57.4693 25.4914 58.33 23.4628 58.33 21.0039V18.9753H53.1048L53.1663 20.9424ZM46.0969 10.738L43.8224 15.9631H58.5144V10.6765L46.0969 10.738ZM0.238281 11.0453L1.7751 16.332L21.3849 16.3935V5.82015H16.1597V11.0453H0.238281Z" fill="#16A8B3"/>
<path d="M87.1829 13.3792H83.5281C83.714 12.6978 84.1476 12.0784 84.767 11.6448C85.3865 11.2112 86.0059 10.9634 86.7493 10.9634H87.8023L89.4129 5.69811H86.8112C84.4573 5.69811 82.4131 6.56533 80.6787 8.23783C79.0062 9.91033 78.139 11.9545 78.139 14.3703V15.9809L78.2009 18.5826H84.5192C84.5192 18.7064 84.5193 21.5559 84.4573 21.6798C84.3334 22.4231 83.8998 23.1045 83.1565 23.8478C82.537 24.3434 81.7937 24.5912 80.9884 24.5912H72.8737C71.8826 24.5912 71.0154 24.2195 70.334 23.5381C69.6526 22.8567 69.2809 21.9895 69.2809 20.9984V13.7509C69.2809 13.0695 69.5906 12.512 70.0862 12.0164C70.7676 11.3351 71.5109 11.0253 72.4401 11.0253H75.4134L75.4754 5.76005H72.4401C70.0862 5.76005 68.042 6.62727 66.3695 8.29978C64.8828 9.78644 64.0776 11.5828 64.0156 13.5651V20.9365C64.0156 23.3523 64.8828 25.4584 66.6173 27.1928C68.3517 28.9273 70.3959 29.7945 72.8737 29.7945H80.9884C83.4042 29.7945 85.5104 28.9273 87.2448 27.1928C88.2979 26.1398 89.0412 24.9009 89.4748 23.6001C89.6606 22.9806 89.7226 22.2992 89.7845 21.5559C89.7845 21.3701 89.7845 18.4587 89.8465 18.2728V15.9189C89.8465 15.2376 89.5987 14.6181 89.0412 14.0606C88.4837 13.627 87.8643 13.3792 87.1829 13.3792ZM92.9437 29.9803H98.209V13.0076H92.9437V29.9803ZM105.395 10.9014V5.57422H93.0056L90.0942 11.0253H100.067V16.2906H105.333L105.395 10.9014Z" fill="#E80645"/>
<path d="M149.407 11.7949C148.767 5.77549 144.541 1.67718 138.521 1.03682C134.743 0.652603 130.837 0.652603 126.995 1.03682C121.103 1.67718 117.005 5.64742 116.108 11.3466C115.788 13.3958 115.98 15.445 115.98 17.5581C116.044 17.5581 115.916 17.5581 115.98 17.5581C115.98 19.159 115.852 20.824 115.916 22.4249C116.108 29.2127 121.295 34.3997 128.083 34.5918C131.221 34.6558 134.295 34.6558 137.433 34.5918C143.388 34.4637 148.447 30.4294 149.279 24.6021C149.791 20.4398 149.856 16.0213 149.407 11.7949ZM123.601 11.4107C123.729 9.74574 125.33 8.33694 126.995 8.52905C128.66 8.72116 129.876 10.13 129.812 11.7309C129.684 13.4598 128.211 14.7406 126.482 14.6125C124.753 14.4844 123.473 13.0756 123.601 11.4107ZM140.698 18.7748C140.698 18.9029 140.698 18.9669 140.698 19.095C140.698 19.159 140.698 19.159 140.698 19.2231C140.634 19.9915 140.442 20.6959 140.122 21.4003C139.418 22.9372 138.393 24.0898 136.984 24.9863C136.216 25.4346 135.447 25.7548 134.615 25.9469C134.295 26.0109 133.911 26.0109 133.59 26.075C133.462 26.075 133.334 26.075 133.206 26.075C133.014 26.075 132.758 26.075 132.566 26.075C132.502 26.075 132.438 26.075 132.374 26.075C132.31 26.075 132.182 26.075 132.118 26.075C130.324 25.9469 128.788 25.1784 127.507 23.8977C126.418 22.8091 125.65 21.5284 125.33 20.0556C125.266 19.7354 125.266 19.4792 125.202 19.159C125.202 19.095 125.202 18.9669 125.202 18.9029C125.202 18.7748 125.202 18.7108 125.202 18.5827C125.33 18.5827 125.33 18.4547 125.33 18.3906C125.586 17.8783 126.098 17.5581 126.674 17.6222C127.251 17.7503 127.635 18.1345 127.763 18.7748C128.083 21.2722 129.684 23.0653 132.118 23.5135C135.127 24.0898 138.137 21.8486 138.329 18.7748C138.393 18.0704 138.777 17.6862 139.418 17.4941V17.4301C139.546 17.4301 139.674 17.4301 139.802 17.4301C139.802 17.4301 139.802 17.4301 139.802 17.4941C140.378 17.5581 140.762 17.8783 140.89 18.5187C140.698 18.5827 140.698 18.7108 140.698 18.7748ZM138.841 14.6125C137.112 14.6765 135.639 13.3318 135.575 11.6028C135.575 9.93784 136.856 8.59308 138.521 8.46501C140.25 8.40098 141.723 9.74574 141.723 11.4747C141.787 13.2037 140.506 14.5484 138.841 14.6125Z" fill="#E80645"/>
</svg>
