<svg width="158" height="21" viewBox="0 0 158 21" fill="none" xmlns="http://www.w3.org/2000/svg">
<path d="M6.80187 7.642V10.94C6.80187 11.11 6.86987 11.2517 7.00587 11.365C7.14187 11.467 7.29487 11.518 7.46487 11.518H8.68887C8.84753 11.518 8.92687 11.5973 8.92687 11.756V13.762C8.92687 13.9207 8.84753 14 8.68887 14H7.80487C7.63487 14 7.45353 13.966 7.26087 13.898C7.0682 13.8187 6.90953 13.6997 6.78487 13.541V13.83C6.78487 14.272 6.7112 14.6857 6.56387 15.071C6.41653 15.4563 6.21253 15.8077 5.95187 16.125C5.70253 16.4423 5.4022 16.72 5.05087 16.958C4.69953 17.2073 4.3142 17.4 3.89487 17.536L1.41287 18.369L0.766867 16.397L3.35087 15.564C3.75887 15.4393 4.08187 15.2013 4.31987 14.85C4.5692 14.4987 4.69387 14.1077 4.69387 13.677V7.642H6.80187ZM4.62587 4.123H6.75087V6.248H4.62587V4.123ZM9.58655 18.165H11.6775V16.04H9.58655V18.165ZM12.5615 18.165H14.6865V16.04H12.5615V18.165ZM15.7575 13.762C15.7575 13.8187 15.7349 13.8753 15.6895 13.932C15.6442 13.9773 15.5875 14 15.5195 14H14.0065C13.6552 14 13.3039 13.915 12.9525 13.745C12.6125 13.575 12.3575 13.3427 12.1875 13.048C11.9722 13.3427 11.6775 13.575 11.3035 13.745C10.9409 13.915 10.5782 14 10.2155 14H8.68555C8.62888 14 8.57788 13.9773 8.53255 13.932C8.47588 13.8867 8.44755 13.83 8.44755 13.762V11.773C8.44755 11.705 8.47588 11.6483 8.53255 11.603C8.57788 11.5463 8.62888 11.518 8.68555 11.518H10.4195C10.6122 11.518 10.7822 11.4613 10.9295 11.348C11.0769 11.2233 11.1675 11.0647 11.2015 10.872L11.8645 7.676L13.9215 8.05L13.3945 10.736C13.3492 10.9513 13.3889 11.1383 13.5135 11.297C13.6382 11.4443 13.8082 11.518 14.0235 11.518H15.5195C15.5875 11.518 15.6442 11.5463 15.6895 11.603C15.7349 11.6483 15.7575 11.705 15.7575 11.773V13.762ZM16.3244 5.704L20.4724 0.824999L21.4584 1.811L17.4124 6.554L16.3244 5.704ZM30.6214 10.821C30.6214 11.0137 30.6837 11.178 30.8084 11.314C30.9444 11.45 31.1087 11.518 31.3014 11.518H32.4914C32.5594 11.518 32.6161 11.5463 32.6614 11.603C32.7067 11.6483 32.7294 11.6993 32.7294 11.756L32.7464 13.762C32.7464 13.83 32.7181 13.8867 32.6614 13.932C32.6161 13.9773 32.5594 14 32.4914 14H31.6584C31.2731 14 30.9047 13.932 30.5534 13.796C30.2134 13.66 29.9017 13.4787 29.6184 13.252C29.3464 13.4787 29.0347 13.66 28.6834 13.796C28.3434 13.932 27.9864 14 27.6124 14H15.5254C15.3667 14 15.2874 13.9207 15.2874 13.762V11.756C15.2874 11.6993 15.3101 11.6483 15.3554 11.603C15.3894 11.5463 15.4461 11.518 15.5254 11.518H28.0034C28.1281 11.518 28.2414 11.467 28.3434 11.365C28.4567 11.263 28.5134 11.1327 28.5134 10.974V9.767C28.5134 9.597 28.4511 9.45533 28.3264 9.342C28.2131 9.21733 28.0771 9.155 27.9184 9.155H19.3504L17.8374 7.71L23.0054 1.658L24.5184 3.052L21.3054 6.86H27.6974C28.1054 6.86 28.4851 6.93933 28.8364 7.098C29.1877 7.24533 29.4937 7.455 29.7544 7.727C30.0264 7.98767 30.2361 8.29933 30.3834 8.662C30.5421 9.01333 30.6214 9.393 30.6214 9.801V10.821ZM34.9742 11.518C35.1669 11.518 35.3255 11.4557 35.4502 11.331C35.5862 11.195 35.6542 11.0307 35.6542 10.838V7.166H37.7622V10.821C37.7622 11.263 37.6772 11.6767 37.5072 12.062C37.3485 12.4473 37.1219 12.7873 36.8272 13.082C36.5439 13.3653 36.2095 13.592 35.8242 13.762C35.4389 13.9207 35.0252 14 34.5832 14H32.4922C32.4242 14 32.3675 13.9773 32.3222 13.932C32.2769 13.8753 32.2542 13.8187 32.2542 13.762V11.773C32.2542 11.705 32.2769 11.6483 32.3222 11.603C32.3675 11.5463 32.4242 11.518 32.4922 11.518H34.9742ZM35.6202 5.772H37.7452V3.647H35.6202V5.772ZM41.4608 14H39.3528V2.202H41.4608V14ZM48.6112 7.166H50.7362V5.041H48.6112V7.166ZM51.6202 7.166H53.7452V5.041H51.6202V7.166ZM46.6902 7.166V10.26C46.6902 10.6227 46.8149 10.923 47.0642 11.161C47.3136 11.399 47.6139 11.518 47.9652 11.518H55.0032C55.1959 11.518 55.3546 11.4557 55.4792 11.331C55.6152 11.2063 55.6832 11.0477 55.6832 10.855V7.659H57.7912V10.838C57.7912 11.0307 57.8536 11.195 57.9782 11.331C58.1142 11.4557 58.2786 11.518 58.4712 11.518H58.9642C59.0209 11.518 59.0719 11.5407 59.1172 11.586C59.1739 11.6313 59.2022 11.688 59.2022 11.756V13.762C59.2022 13.83 59.1739 13.8867 59.1172 13.932C59.0719 13.9773 59.0209 14 58.9642 14H58.8112C57.9952 14 57.3039 13.6827 56.7372 13.048C56.4426 13.388 56.1139 13.6317 55.7512 13.779C55.3999 13.9263 55.0202 14 54.6122 14H48.1522C47.6649 14 47.2002 13.9093 46.7582 13.728C46.3276 13.5353 45.9479 13.2747 45.6192 12.946C45.3019 12.6173 45.0469 12.2377 44.8542 11.807C44.6729 11.365 44.5822 10.9003 44.5822 10.413V7.166H46.6902ZM61.9297 10.141C61.9297 10.345 62.0487 10.5433 62.2867 10.736C62.536 10.9287 62.859 11.0987 63.2557 11.246C63.6523 11.0987 63.9753 10.9287 64.2247 10.736C64.4853 10.5433 64.6157 10.345 64.6157 10.141V9.682C64.6157 9.36467 64.4967 9.09833 64.2587 8.883C64.032 8.65633 63.7543 8.543 63.4257 8.543H63.0687C62.74 8.543 62.468 8.65633 62.2527 8.883C62.0373 9.09833 61.9297 9.36467 61.9297 9.682V10.141ZM59.8557 9.495C59.8557 9.019 59.9463 8.577 60.1277 8.169C60.3203 7.74967 60.5697 7.39267 60.8757 7.098C61.1817 6.792 61.533 6.554 61.9297 6.384C62.3263 6.214 62.7343 6.129 63.1537 6.129H63.4427C63.896 6.129 64.3153 6.214 64.7007 6.384C65.0973 6.554 65.443 6.78633 65.7377 7.081C66.0323 7.37567 66.2647 7.72133 66.4347 8.118C66.6047 8.50333 66.6897 8.92267 66.6897 9.376V9.988C66.6897 10.2373 66.6557 10.498 66.5877 10.77C66.531 11.0307 66.4403 11.2857 66.3157 11.535C66.3497 11.535 66.429 11.535 66.5537 11.535C66.6783 11.5237 66.786 11.518 66.8767 11.518H67.5737C67.653 11.518 67.7097 11.5463 67.7437 11.603C67.789 11.6483 67.8117 11.705 67.8117 11.773V13.762C67.8117 13.8187 67.789 13.8753 67.7437 13.932C67.6983 13.9773 67.6417 14 67.5737 14H65.5677C65.3523 14 65.1597 13.9943 64.9897 13.983C64.8197 13.9603 64.644 13.9263 64.4627 13.881C64.2927 13.8243 64.1113 13.7563 63.9187 13.677C63.726 13.5977 63.505 13.49 63.2557 13.354C63.0063 13.49 62.7853 13.5977 62.5927 13.677C62.4 13.7563 62.2187 13.8243 62.0487 13.881C61.8787 13.9263 61.703 13.9603 61.5217 13.983C61.3517 13.9943 61.1647 14 60.9607 14H58.9717C58.9037 14 58.8527 13.9773 58.8187 13.932C58.7733 13.8753 58.745 13.8187 58.7337 13.762V11.773C58.7337 11.705 58.7563 11.6483 58.8017 11.603C58.847 11.5463 58.9037 11.518 58.9717 11.518H59.7027C59.7707 11.518 59.867 11.5237 59.9917 11.535C60.1163 11.535 60.1957 11.535 60.2297 11.535C60.105 11.2743 60.0087 11.0137 59.9407 10.753C59.884 10.4923 59.8557 10.2373 59.8557 9.988V9.495ZM62.2017 4.735H64.3267V2.61H62.2017V4.735ZM68.3703 5.704L72.5183 0.824999L73.5043 1.811L69.4583 6.554L68.3703 5.704ZM82.6673 10.821C82.6673 11.0137 82.7296 11.178 82.8543 11.314C82.9903 11.45 83.1546 11.518 83.3473 11.518H84.5373C84.6053 11.518 84.662 11.5463 84.7073 11.603C84.7526 11.6483 84.7753 11.6993 84.7753 11.756L84.7923 13.762C84.7923 13.83 84.764 13.8867 84.7073 13.932C84.662 13.9773 84.6053 14 84.5373 14H83.7043C83.319 14 82.9506 13.932 82.5993 13.796C82.2593 13.66 81.9476 13.4787 81.6643 13.252C81.3923 13.4787 81.0806 13.66 80.7293 13.796C80.3893 13.932 80.0323 14 79.6583 14H67.5713C67.4126 14 67.3333 13.9207 67.3333 13.762V11.756C67.3333 11.6993 67.356 11.6483 67.4013 11.603C67.4353 11.5463 67.492 11.518 67.5713 11.518H80.0493C80.174 11.518 80.2873 11.467 80.3893 11.365C80.5026 11.263 80.5593 11.1327 80.5593 10.974V9.767C80.5593 9.597 80.497 9.45533 80.3723 9.342C80.259 9.21733 80.123 9.155 79.9643 9.155H71.3963L69.8833 7.71L75.0513 1.658L76.5643 3.052L73.3513 6.86H79.7433C80.1513 6.86 80.531 6.93933 80.8823 7.098C81.2336 7.24533 81.5396 7.455 81.8003 7.727C82.0723 7.98767 82.282 8.29933 82.4293 8.662C82.588 9.01333 82.6673 9.393 82.6673 9.801V10.821ZM89.1791 14C88.7711 14 88.3858 13.9263 88.0231 13.779C87.6718 13.6203 87.3601 13.3767 87.0881 13.048C86.7934 13.3767 86.4648 13.6203 86.1021 13.779C85.7508 13.9263 85.3711 14 84.9631 14H84.5381C84.4701 14 84.4134 13.9773 84.3681 13.932C84.3228 13.8753 84.3001 13.8187 84.3001 13.762V11.773C84.3001 11.705 84.3284 11.6483 84.3851 11.603C84.4418 11.5463 84.4928 11.518 84.5381 11.518H85.3541C85.5468 11.518 85.7054 11.45 85.8301 11.314C85.9661 11.1667 86.0341 10.9967 86.0341 10.804V7.642H88.1251V10.804C88.1251 10.9967 88.1874 11.1667 88.3121 11.314C88.4481 11.45 88.6124 11.518 88.8051 11.518H89.3151C89.5078 11.518 89.6778 11.4613 89.8251 11.348C89.9724 11.2233 90.0631 11.0647 90.0971 10.872L90.7431 7.676L92.8851 8.05L92.3411 10.719C92.2958 10.9117 92.3411 11.093 92.4771 11.263C92.6131 11.433 92.7774 11.518 92.9701 11.518H94.2961V7.2H96.4041V11.739C96.4041 12.045 96.3418 12.334 96.2171 12.606C96.1038 12.878 95.9394 13.1217 95.7241 13.337C95.5201 13.541 95.2821 13.7053 95.0101 13.83C94.7381 13.9433 94.4491 14 94.1431 14H92.9701C92.6074 14 92.2731 13.9263 91.9671 13.779C91.6611 13.6317 91.3834 13.3823 91.1341 13.031C90.8621 13.3937 90.5561 13.6487 90.2161 13.796C89.8874 13.932 89.5418 14 89.1791 14ZM93.3271 6.265H91.2021V4.14H93.3271V6.265ZM90.3181 6.265H88.1931V4.14H90.3181V6.265ZM91.7971 3.511H89.6721V1.386H91.7971V3.511ZM101.93 14C101.602 14 101.29 13.9377 100.995 13.813C100.701 13.6883 100.446 13.5183 100.23 13.303C100.015 13.0763 99.8451 12.8213 99.7204 12.538C99.5957 12.2433 99.5334 11.9317 99.5334 11.603V9.257H101.318V11.178C101.318 11.28 101.352 11.365 101.42 11.433C101.488 11.4897 101.568 11.518 101.658 11.518H104.48C104.673 11.518 104.843 11.4783 104.99 11.399C105.149 11.3083 105.268 11.195 105.347 11.059C105.427 10.9117 105.466 10.753 105.466 10.583C105.478 10.4017 105.432 10.226 105.33 10.056L103.171 6.214L104.956 5.058L107.251 9.121C107.546 9.64233 107.676 10.192 107.642 10.77C107.62 11.3367 107.478 11.8637 107.217 12.351C106.957 12.827 106.588 13.2237 106.112 13.541C105.636 13.847 105.092 14 104.48 14H101.93ZM113.121 13.762C113.121 13.9207 113.042 14 112.883 14H112.373C111.943 14 111.535 13.9207 111.149 13.762C110.775 13.592 110.447 13.371 110.163 13.099C109.88 12.8157 109.653 12.487 109.483 12.113C109.325 11.7277 109.245 11.3197 109.245 10.889V2.202H111.353V10.838C111.353 11.0307 111.416 11.195 111.54 11.331C111.676 11.4557 111.841 11.518 112.033 11.518H112.883C112.951 11.518 113.008 11.5463 113.053 11.603C113.099 11.6483 113.121 11.705 113.121 11.773V13.762ZM113.71 11.518V9.937C113.71 9.54033 113.784 9.16633 113.931 8.815C114.09 8.46367 114.299 8.15767 114.56 7.897C114.821 7.63633 115.127 7.43233 115.478 7.285C115.829 7.12633 116.203 7.047 116.6 7.047H117.229C117.569 7.047 117.886 7.10367 118.181 7.217C118.487 7.33033 118.759 7.489 118.997 7.693C119.235 7.88567 119.439 8.12367 119.609 8.407C119.779 8.679 119.898 8.97933 119.966 9.308L120.238 10.6C120.329 11.008 120.312 11.416 120.187 11.824C120.062 12.232 119.864 12.6003 119.592 12.929C119.331 13.2463 119.014 13.507 118.64 13.711C118.266 13.9037 117.869 14 117.45 14H116.957C116.742 14 116.538 13.983 116.345 13.949C116.152 13.9037 115.96 13.847 115.767 13.779C115.79 13.779 115.801 13.8357 115.801 13.949C115.79 14.119 115.829 14.2833 115.92 14.442C116.011 14.612 116.158 14.714 116.362 14.748L118.402 15.292L120.238 13.065C120.635 12.589 121.082 12.215 121.581 11.943C122.08 11.6597 122.635 11.518 123.247 11.518H123.451C123.508 11.518 123.559 11.5407 123.604 11.586C123.661 11.6313 123.689 11.688 123.689 11.756V13.745C123.689 13.8923 123.61 13.9773 123.451 14H122.958C122.72 14 122.488 14.0567 122.261 14.17C122.034 14.2833 121.842 14.4477 121.683 14.663C121.638 14.731 121.541 14.85 121.394 15.02C121.258 15.2013 121.099 15.4053 120.918 15.632C120.748 15.8587 120.567 16.091 120.374 16.329C120.181 16.5783 120.006 16.805 119.847 17.009C119.688 17.213 119.558 17.3773 119.456 17.502C119.354 17.638 119.303 17.7003 119.303 17.689L115.223 16.482C114.996 16.414 114.792 16.295 114.611 16.125C114.43 15.9663 114.271 15.7737 114.135 15.547C114.01 15.3203 113.914 15.071 113.846 14.799C113.778 14.5383 113.744 14.272 113.744 14H112.877C112.718 13.9773 112.639 13.8923 112.639 13.745V11.756C112.639 11.5973 112.718 11.518 112.877 11.518H113.71ZM115.818 9.937V11.518H117.79C117.915 11.518 118.017 11.4727 118.096 11.382C118.175 11.28 118.204 11.1667 118.181 11.042L117.977 9.886C117.92 9.60267 117.745 9.461 117.45 9.461H116.294C116.169 9.461 116.056 9.512 115.954 9.614C115.863 9.70467 115.818 9.81233 115.818 9.937ZM126.07 6.282H128.195V4.157H126.07V6.282ZM130.252 13.762C130.252 13.8187 130.229 13.8753 130.184 13.932C130.139 13.9773 130.082 14 130.014 14H128.637C128.286 14 127.934 13.915 127.583 13.745C127.243 13.575 126.988 13.3427 126.818 13.048C126.603 13.3427 126.308 13.575 125.934 13.745C125.571 13.915 125.209 14 124.846 14H123.452C123.395 14 123.344 13.9773 123.299 13.932C123.242 13.8867 123.214 13.83 123.214 13.762V11.773C123.214 11.705 123.242 11.6483 123.299 11.603C123.344 11.5463 123.395 11.518 123.452 11.518H125.05C125.243 11.518 125.413 11.4613 125.56 11.348C125.707 11.2233 125.798 11.0647 125.832 10.872L126.495 7.676L128.552 8.05L128.025 10.736C127.98 10.9513 128.019 11.1383 128.144 11.297C128.269 11.4443 128.439 11.518 128.654 11.518H130.014C130.082 11.518 130.139 11.5463 130.184 11.603C130.229 11.6483 130.252 11.705 130.252 11.773V13.762ZM134.549 14C134.152 14 133.772 13.9263 133.41 13.779C133.058 13.6203 132.741 13.371 132.458 13.031C132.174 13.371 131.857 13.6203 131.506 13.779C131.154 13.9263 130.78 14 130.384 14H130.01C129.953 14 129.902 13.9773 129.857 13.932C129.8 13.8753 129.772 13.8187 129.772 13.762V11.773C129.772 11.705 129.8 11.6483 129.857 11.603C129.913 11.5463 129.97 11.518 130.027 11.518H130.724C130.916 11.518 131.075 11.45 131.2 11.314C131.336 11.178 131.404 11.0137 131.404 10.821V7.642H133.495V10.889C133.495 11.0817 133.563 11.2347 133.699 11.348C133.846 11.4613 133.999 11.518 134.158 11.518H134.736C134.928 11.518 135.098 11.4557 135.246 11.331C135.393 11.2063 135.484 11.0477 135.518 10.855L136.147 7.659L138.255 8.033L137.728 10.719C137.671 10.9343 137.711 11.1213 137.847 11.28C137.983 11.4387 138.153 11.518 138.357 11.518H139.003C139.195 11.518 139.354 11.4557 139.479 11.331C139.615 11.195 139.683 11.0307 139.683 10.838V7.2H141.791V10.821C141.791 11.0363 141.853 11.2063 141.978 11.331C142.114 11.4557 142.278 11.518 142.471 11.518H143.151C143.309 11.518 143.389 11.5973 143.389 11.756V13.745C143.389 13.813 143.366 13.8753 143.321 13.932C143.287 13.9773 143.23 14 143.151 14H142.828C142.42 14 142.034 13.9263 141.672 13.779C141.32 13.6203 141.009 13.371 140.737 13.031C140.453 13.371 140.125 13.6203 139.751 13.779C139.388 13.9263 139.008 14 138.612 14C138.249 14 137.869 13.932 137.473 13.796C137.087 13.6487 136.77 13.3937 136.521 13.031C136.249 13.3937 135.943 13.6487 135.603 13.796C135.274 13.932 134.923 14 134.549 14ZM138.782 6.299H136.657V4.174H138.782V6.299ZM135.773 6.299H133.648V4.174H135.773V6.299ZM137.252 3.545H135.127V1.42H137.252V3.545ZM144.059 18.165H146.15V16.04H144.059V18.165ZM147.034 18.165H149.159V16.04H147.034V18.165ZM150.23 13.762C150.23 13.8187 150.208 13.8753 150.162 13.932C150.117 13.9773 150.06 14 149.992 14H148.479C148.128 14 147.777 13.915 147.425 13.745C147.085 13.575 146.83 13.3427 146.66 13.048C146.445 13.3427 146.15 13.575 145.776 13.745C145.414 13.915 145.051 14 144.688 14H143.158C143.102 14 143.051 13.9773 143.005 13.932C142.949 13.8867 142.92 13.83 142.92 13.762V11.773C142.92 11.705 142.949 11.6483 143.005 11.603C143.051 11.5463 143.102 11.518 143.158 11.518H144.892C145.085 11.518 145.255 11.4613 145.402 11.348C145.55 11.2233 145.64 11.0647 145.674 10.872L146.337 7.676L148.394 8.05L147.867 10.736C147.822 10.9513 147.862 11.1383 147.986 11.297C148.111 11.4443 148.281 11.518 148.496 11.518H149.992C150.06 11.518 150.117 11.5463 150.162 11.603C150.208 11.6483 150.23 11.705 150.23 11.773V13.762ZM154.452 11.518C154.645 11.518 154.803 11.4557 154.928 11.331C155.064 11.195 155.132 11.0307 155.132 10.838V7.166H157.24V10.821C157.24 11.263 157.155 11.6767 156.985 12.062C156.826 12.4473 156.6 12.7873 156.305 13.082C156.022 13.3653 155.687 13.592 155.302 13.762C154.917 13.9207 154.503 14 154.061 14H149.998C149.93 14 149.873 13.9773 149.828 13.932C149.783 13.8753 149.76 13.8187 149.76 13.762V11.79C149.76 11.722 149.783 11.6597 149.828 11.603C149.873 11.5463 149.93 11.518 149.998 11.518H154.452ZM150.542 18.165H152.667V16.04H150.542V18.165ZM153.551 18.165H155.676V16.04H153.551V18.165ZM152.004 20.919H154.129V18.794H152.004V20.919Z" fill="white"/>
</svg>
