<svg width="9" height="10" viewBox="0 0 9 10" fill="none" xmlns="http://www.w3.org/2000/svg">
<path d="M3.85586 0.256203C4.03285 0.0912506 4.26238 0 4.50032 0C4.73826 0 4.96779 0.0912506 5.14479 0.256203L8.6805 3.5517C8.78103 3.64548 8.86142 3.76013 8.91647 3.88822C8.97151 4.01632 8.99997 4.15498 9 4.29522V8.99975C9 9.26503 8.89841 9.51945 8.71757 9.70703C8.53673 9.89462 8.29146 10 8.03571 10H6.42857C6.17283 10 5.92756 9.89462 5.74672 9.70703C5.56588 9.51945 5.46429 9.26503 5.46429 8.99975V6.66582C5.46429 6.5774 5.43042 6.49259 5.37014 6.43006C5.30986 6.36753 5.22811 6.33241 5.14286 6.33241H3.85714C3.77189 6.33241 3.69014 6.36753 3.62986 6.43006C3.56958 6.49259 3.53571 6.5774 3.53571 6.66582V8.99975C3.53571 9.26503 3.43412 9.51945 3.25328 9.70703C3.07244 9.89462 2.82717 10 2.57143 10H0.964286C0.708541 10 0.463271 9.89462 0.282433 9.70703C0.101594 9.51945 0 9.26503 0 8.99975V4.29522C0 4.01182 0.115714 3.74175 0.320143 3.5517L3.85586 0.256203ZM4.71471 0.752328C4.65573 0.697406 4.57926 0.667027 4.5 0.667027C4.42074 0.667027 4.34427 0.697406 4.28529 0.752328L0.749571 4.04783C0.716077 4.07902 0.68927 4.11715 0.670887 4.15977C0.652504 4.20239 0.642955 4.24854 0.642857 4.29522V8.99975C0.642857 9.08817 0.676722 9.17298 0.737001 9.23551C0.797281 9.29804 0.879038 9.33316 0.964286 9.33316H2.57143C2.65668 9.33316 2.73843 9.29804 2.79871 9.23551C2.85899 9.17298 2.89286 9.08817 2.89286 8.99975V6.66582C2.89286 6.40054 2.99445 6.14612 3.17529 5.95854C3.35613 5.77095 3.6014 5.66557 3.85714 5.66557H5.14286C5.3986 5.66557 5.64387 5.77095 5.82471 5.95854C6.00555 6.14612 6.10714 6.40054 6.10714 6.66582V8.99975C6.10714 9.08817 6.14101 9.17298 6.20129 9.23551C6.26157 9.29804 6.34332 9.33316 6.42857 9.33316H8.03571C8.12096 9.33316 8.20272 9.29804 8.263 9.23551C8.32328 9.17298 8.35714 9.08817 8.35714 8.99975V4.29522C8.35705 4.24854 8.3475 4.20239 8.32911 4.15977C8.31073 4.11715 8.28392 4.07902 8.25043 4.04783L4.71471 0.752328Z" fill="#13275F"/>
</svg>
