<svg width="10" height="10" viewBox="0 0 10 10" fill="none" xmlns="http://www.w3.org/2000/svg">
<path fill-rule="evenodd" clip-rule="evenodd" d="M2.67202 0C2.27465 0 2.0023 7.45058e-09 1.75921 0.0618605C1.50763 0.126596 1.27338 0.240219 1.07168 0.395352C0.869983 0.550484 0.70534 0.743657 0.588444 0.962326C0.475832 1.17256 0.422751 1.42326 0.344865 1.78884L0.0372899 3.22977C-0.0171821 3.48236 -0.0119194 3.74309 0.0527073 3.99357C0.117334 4.24406 0.239753 4.47821 0.411341 4.67953V5.95628C0.411341 6.81116 0.411341 7.48837 0.487242 8.01814C0.565624 8.56326 0.730325 9.00465 1.1014 9.35302C1.47247 9.70093 1.94326 9.85535 2.52517 9.92884C3.09022 10 3.81252 10 4.72384 10H5.27598C6.18779 10 6.9101 10 7.47514 9.92884C8.05656 9.85535 8.52735 9.70093 8.89892 9.35302C9.26999 9.00465 9.43469 8.56326 9.51307 8.01814C9.58898 7.48791 9.58897 6.81116 9.58897 5.95628V4.68C9.76055 4.47858 9.88292 4.24433 9.94746 3.99376C10.012 3.74319 10.0171 3.4824 9.96253 3.22977L9.65495 1.78884C9.57757 1.42326 9.52399 1.17256 9.41187 0.962326C9.29492 0.743608 9.1302 0.550405 8.92841 0.39527C8.72662 0.240135 8.49228 0.126538 8.24061 0.0618605C7.99802 7.45058e-09 7.72567 0 7.3278 0H2.67202ZM8.10964 5.34884C8.36214 5.34926 8.61215 5.30213 8.84484 5.21023V5.93023C8.84484 6.81721 8.84385 7.44744 8.77539 7.92558C8.70842 8.39302 8.58241 8.66279 8.37257 8.85954C8.16272 9.05628 7.87499 9.17442 7.37543 9.23721C7.12216 9.26637 6.86753 9.28407 6.61245 9.29023V8.00837C6.61245 7.80372 6.61245 7.62698 6.59855 7.48279C6.58367 7.3293 6.55093 7.17767 6.46263 7.03488C6.36477 6.87575 6.22396 6.74357 6.05435 6.65163C5.90205 6.5693 5.74032 6.53861 5.57661 6.52465C5.42283 6.51163 5.23431 6.51163 5.01603 6.51163H4.98379C4.76551 6.51163 4.57749 6.51163 4.42321 6.52465C4.2595 6.53861 4.09827 6.5693 3.94597 6.65163C3.77618 6.74351 3.63519 6.87569 3.53719 7.03488C3.44939 7.17767 3.41664 7.3293 3.40176 7.48233C3.38787 7.62744 3.38787 7.80372 3.38787 8.00791V9.29023C3.13245 9.2841 2.87749 9.2664 2.62389 9.23721C2.12533 9.17442 1.83759 9.05628 1.62775 8.85954C1.4179 8.66279 1.2919 8.39302 1.22493 7.92512C1.15597 7.44744 1.15547 6.81721 1.15547 5.93023V5.21023C1.55194 5.367 1.9936 5.39225 2.40744 5.2818C2.82129 5.17135 3.18255 4.93182 3.43153 4.60279C3.61152 4.8345 3.84752 5.02292 4.12019 5.1526C4.39285 5.28229 4.69442 5.34953 5.00016 5.34884C5.3059 5.34953 5.60746 5.28229 5.88013 5.1526C6.15279 5.02292 6.3888 4.8345 6.56879 4.60279C6.74318 4.8337 6.97415 5.02197 7.24228 5.1518C7.51041 5.28162 7.80787 5.34919 8.10964 5.34884ZM4.132 9.3014C4.32449 9.30202 4.53119 9.30233 4.75211 9.30233H5.2482C5.46913 9.30233 5.67583 9.30202 5.86831 9.3014V8.02326C5.86831 7.79954 5.86782 7.65488 5.8574 7.54558C5.84748 7.44093 5.83011 7.40279 5.81821 7.38372C5.78559 7.33081 5.73871 7.28686 5.68228 7.25628C5.66194 7.24512 5.62126 7.2293 5.50964 7.21953C5.34002 7.20983 5.17006 7.20642 5.00016 7.2093C4.76154 7.2093 4.60726 7.2093 4.49067 7.21953C4.37856 7.22884 4.33838 7.24512 4.31804 7.25628C4.26142 7.2868 4.21437 7.33075 4.18161 7.38372C4.1702 7.40233 4.15284 7.44093 4.14292 7.54558C4.1325 7.65488 4.132 7.79954 4.132 8.02326V9.3014ZM3.34818 0.697674H2.72708C2.25381 0.697674 2.08961 0.70093 1.95666 0.734884C1.80573 0.773694 1.6652 0.841825 1.54418 0.934855C1.42317 1.02788 1.32436 1.14373 1.25419 1.27488C1.19218 1.3907 1.15696 1.54047 1.06419 1.97581L0.767532 3.36651C0.735915 3.5096 0.735762 3.65724 0.767084 3.80038C0.798406 3.94353 0.860544 4.07918 0.949697 4.19904C1.03885 4.31891 1.15314 4.42046 1.28559 4.49749C1.41804 4.57452 1.56585 4.62541 1.71999 4.64704C1.87413 4.66868 2.03136 4.66061 2.18206 4.62332C2.33276 4.58604 2.47377 4.52032 2.59645 4.4302C2.71914 4.34007 2.82092 4.22743 2.89559 4.09916C2.97025 3.97089 3.01622 3.82968 3.03069 3.68419L3.06492 3.36512L3.0669 3.34558L3.34818 0.697674ZM3.80508 3.43023L4.09678 0.697674H5.90353L6.19325 3.41488C6.20949 3.57036 6.19098 3.7273 6.13892 3.8757C6.08685 4.02409 6.00237 4.16069 5.89087 4.27676C5.77936 4.39284 5.64327 4.48586 5.49128 4.54988C5.3393 4.6139 5.17475 4.64751 5.00813 4.64858C4.84151 4.64965 4.67649 4.61816 4.52358 4.5561C4.37067 4.49404 4.23323 4.40278 4.12004 4.28815C4.00684 4.17351 3.92038 4.03802 3.86615 3.8903C3.81192 3.74259 3.79112 3.5859 3.80508 3.43023ZM8.04366 0.734884C7.91071 0.70093 7.7465 0.697674 7.27324 0.697674H6.65114L6.97012 3.68372C6.98506 3.8288 7.03134 3.96951 7.10614 4.09728C7.18094 4.22505 7.28269 4.33722 7.40521 4.42693C7.52773 4.51665 7.66844 4.58205 7.81878 4.61914C7.96912 4.65623 8.12594 4.66425 8.27969 4.64269C8.43344 4.62114 8.5809 4.57047 8.71309 4.49376C8.84528 4.41706 8.95944 4.31593 9.04861 4.19654C9.13778 4.07715 9.20009 3.94198 9.23175 3.79929C9.26341 3.65659 9.26377 3.50934 9.23278 3.36651L8.93662 1.97581C8.84335 1.54047 8.80813 1.3907 8.74662 1.27488C8.67639 1.14369 8.57752 1.02781 8.45641 0.934773C8.3353 0.84174 8.19467 0.773636 8.04366 0.734884Z" fill="#13275F"/>
</svg>
