<svg width="10" height="10" viewBox="0 0 10 10" fill="none" xmlns="http://www.w3.org/2000/svg">
<path d="M8.01448 0.340948L9.65907 1.98614C9.76716 2.09424 9.8529 2.22256 9.9114 2.36379C9.96989 2.50502 10 2.65639 10 2.80926C10 2.96212 9.96989 3.11349 9.9114 3.25472C9.8529 3.39596 9.76716 3.52428 9.65907 3.63237L8.32229 4.96922C8.59759 5.01093 8.84882 5.14995 9.0304 5.36105C9.21198 5.57216 9.31186 5.84137 9.31194 6.11982V8.83595C9.31194 9.14467 9.18931 9.44075 8.97101 9.65906C8.75272 9.87736 8.45666 10 8.14795 10H1.16399C0.855283 10 0.559216 9.87736 0.340926 9.65906C0.122635 9.44075 0 9.14467 0 8.83595V1.85163C0 1.5429 0.122635 1.24682 0.340926 1.02852C0.559216 0.810218 0.855283 0.687577 1.16399 0.687577H3.87998C4.15866 0.687568 4.4281 0.787551 4.63933 0.969357C4.85055 1.15116 4.98954 1.40272 5.03103 1.67832L6.36833 0.340948C6.47642 0.232854 6.60474 0.14711 6.74596 0.0886096C6.88718 0.0301095 7.03855 0 7.1914 0C7.34426 0 7.49563 0.0301095 7.63685 0.0886096C7.77807 0.14711 7.90639 0.232854 8.01448 0.340948ZM0.775995 8.83595C0.775995 9.05065 0.949818 9.22396 1.16399 9.22396H4.26746L4.26797 5.73181H0.775995V8.83595ZM5.04345 9.22396H8.14795C8.25085 9.22396 8.34954 9.18308 8.4223 9.11032C8.49507 9.03755 8.53595 8.93886 8.53595 8.83595V6.11982C8.53595 6.01692 8.49507 5.91822 8.4223 5.84545C8.34954 5.77269 8.25085 5.73181 8.14795 5.73181H5.04345V9.22396ZM3.87998 1.46361H1.16399C1.06109 1.46361 0.962401 1.50449 0.889637 1.57726C0.816873 1.65003 0.775995 1.74872 0.775995 1.85163V4.95577H4.26797V1.85163C4.26797 1.74872 4.22709 1.65003 4.15433 1.57726C4.08157 1.50449 3.98288 1.46361 3.87998 1.46361ZM5.04397 3.9521V4.95577H6.04759L5.04397 3.9521ZM6.9167 0.890381L5.27315 2.53454C5.23709 2.57058 5.20849 2.61336 5.18897 2.66045C5.16946 2.70755 5.15942 2.75802 5.15942 2.809C5.15942 2.85998 5.16946 2.91045 5.18897 2.95754C5.20849 3.00464 5.23709 3.04742 5.27315 3.08346L6.91774 4.72813C6.99049 4.8008 7.0891 4.84161 7.19192 4.84161C7.29474 4.84161 7.39336 4.8008 7.46611 4.72813L9.11122 3.08346C9.18388 3.0107 9.22469 2.91208 9.22469 2.80926C9.22469 2.70643 9.18388 2.60781 9.11122 2.53506L7.46611 0.889864C7.39336 0.817201 7.29474 0.776387 7.19192 0.776387C7.0891 0.776387 6.99049 0.817201 6.91774 0.889864" fill="#13275F"/>
</svg>
