<svg width="10" height="10" viewBox="0 0 10 10" fill="none" xmlns="http://www.w3.org/2000/svg">
<path d="M0.75 1.80556V2.77778H3.0645C3.16392 2.77768 3.25924 2.73372 3.3295 2.65556L4.0945 1.80556L3.3295 0.955555C3.25924 0.877393 3.16392 0.833431 3.0645 0.833333H1.625C1.39294 0.833333 1.17038 0.935764 1.00628 1.11809C0.842187 1.30042 0.75 1.54771 0.75 1.80556ZM0 1.80556C0 1.32669 0.171205 0.867442 0.475951 0.528835C0.780698 0.190228 1.19402 0 1.625 0H3.0645C3.3627 0.00014442 3.64864 0.131827 3.8595 0.366111L4.781 1.38889H8.3755C8.80639 1.38904 9.21959 1.57933 9.52423 1.91792C9.82886 2.25651 10 2.71568 10 3.19444V8.19444C10 8.43155 9.95797 8.66634 9.8763 8.8854C9.79464 9.10446 9.67494 9.3035 9.52405 9.47117C9.37315 9.63883 9.19401 9.77182 8.99686 9.86256C8.79971 9.9533 8.5884 10 8.375 10H1.625C1.19402 10 0.780698 9.80977 0.475951 9.47117C0.171205 9.13256 0 8.67331 0 8.19444V1.80556ZM0.75 3.61111V8.19444C0.75 8.73111 1.142 9.16667 1.625 9.16667H8.375C8.60706 9.16667 8.82962 9.06424 8.99372 8.88191C9.15781 8.69958 9.25 8.45229 9.25 8.19444V3.19444C9.25 2.9366 9.15781 2.68931 8.99372 2.50698C8.82962 2.32465 8.60706 2.22222 8.375 2.22222H4.78L3.86 3.245C3.75553 3.36107 3.63151 3.45315 3.49502 3.51596C3.35853 3.57878 3.21224 3.61111 3.0645 3.61111H0.75Z" fill="#13275F"/>
</svg>
